<mxfile host="app.diagrams.net" modified="2023-02-07T02:03:27.461Z" agent="5.0 (Windows NT 10.0; Win64; x64) AppleWebKit/537.36 (KHTML, like Gecko) Chrome/109.0.0.0 Safari/537.36" etag="TCc22zOCnHqIFShPVWyU" version="20.8.17" type="github" pages="2">
  <diagram name="페이지-1" id="GGqySA87024tkyD-t-VR">
    <mxGraphModel dx="2514" dy="936" grid="1" gridSize="10" guides="1" tooltips="1" connect="1" arrows="1" fold="1" page="1" pageScale="1" pageWidth="827" pageHeight="1169" math="0" shadow="0">
      <root>
        <mxCell id="0" />
        <mxCell id="1" parent="0" />
        <mxCell id="iEggTIwabMXd5zdSDjMg-40" value="" style="endArrow=classic;html=1;rounded=0;" edge="1" parent="1">
          <mxGeometry width="50" height="50" relative="1" as="geometry">
            <mxPoint x="-160" y="465" as="sourcePoint" />
            <mxPoint x="-220" y="525" as="targetPoint" />
          </mxGeometry>
        </mxCell>
        <mxCell id="iEggTIwabMXd5zdSDjMg-1" value="DB&lt;br&gt;" style="shape=cylinder3;whiteSpace=wrap;html=1;boundedLbl=1;backgroundOutline=1;size=15;" vertex="1" parent="1">
          <mxGeometry x="680" y="200" width="120" height="120" as="geometry" />
        </mxCell>
        <mxCell id="iEggTIwabMXd5zdSDjMg-2" value="Service&lt;br&gt;" style="rounded=0;whiteSpace=wrap;html=1;" vertex="1" parent="1">
          <mxGeometry x="280" y="200" width="120" height="120" as="geometry" />
        </mxCell>
        <mxCell id="iEggTIwabMXd5zdSDjMg-4" value="Controller" style="rounded=0;whiteSpace=wrap;html=1;" vertex="1" parent="1">
          <mxGeometry x="80" y="200" width="120" height="120" as="geometry" />
        </mxCell>
        <mxCell id="iEggTIwabMXd5zdSDjMg-5" value="DS&lt;br&gt;" style="rounded=0;whiteSpace=wrap;html=1;" vertex="1" parent="1">
          <mxGeometry x="-120" y="200" width="120" height="120" as="geometry" />
        </mxCell>
        <mxCell id="iEggTIwabMXd5zdSDjMg-6" value="JSP" style="rounded=0;whiteSpace=wrap;html=1;" vertex="1" parent="1">
          <mxGeometry x="-240" y="440" width="120" height="120" as="geometry" />
        </mxCell>
        <mxCell id="iEggTIwabMXd5zdSDjMg-7" value="Internal&lt;br&gt;Resource&lt;br&gt;ViewResolver" style="rounded=0;whiteSpace=wrap;html=1;" vertex="1" parent="1">
          <mxGeometry y="440" width="120" height="120" as="geometry" />
        </mxCell>
        <mxCell id="iEggTIwabMXd5zdSDjMg-15" value="" style="endArrow=classic;html=1;rounded=0;entryX=0.75;entryY=1;entryDx=0;entryDy=0;exitX=0;exitY=0;exitDx=0;exitDy=0;" edge="1" parent="1" source="iEggTIwabMXd5zdSDjMg-7" target="iEggTIwabMXd5zdSDjMg-5">
          <mxGeometry width="50" height="50" relative="1" as="geometry">
            <mxPoint y="430" as="sourcePoint" />
            <mxPoint x="-30" y="360" as="targetPoint" />
          </mxGeometry>
        </mxCell>
        <mxCell id="iEggTIwabMXd5zdSDjMg-3" value="DAO&lt;br&gt;" style="rounded=0;whiteSpace=wrap;html=1;" vertex="1" parent="1">
          <mxGeometry x="480" y="200" width="120" height="120" as="geometry" />
        </mxCell>
        <mxCell id="iEggTIwabMXd5zdSDjMg-24" value="" style="endArrow=classic;html=1;rounded=0;" edge="1" parent="1">
          <mxGeometry width="50" height="50" relative="1" as="geometry">
            <mxPoint y="230" as="sourcePoint" />
            <mxPoint x="80" y="230" as="targetPoint" />
          </mxGeometry>
        </mxCell>
        <mxCell id="iEggTIwabMXd5zdSDjMg-26" value="" style="endArrow=classic;html=1;rounded=0;exitX=0;exitY=0.75;exitDx=0;exitDy=0;" edge="1" parent="1">
          <mxGeometry width="50" height="50" relative="1" as="geometry">
            <mxPoint x="-120" y="270" as="sourcePoint" />
            <mxPoint x="-320" y="270" as="targetPoint" />
          </mxGeometry>
        </mxCell>
        <mxCell id="iEggTIwabMXd5zdSDjMg-27" value="" style="endArrow=classic;html=1;rounded=0;entryX=1.021;entryY=0.671;entryDx=0;entryDy=0;exitX=0;exitY=0.75;exitDx=0;exitDy=0;entryPerimeter=0;" edge="1" parent="1" target="iEggTIwabMXd5zdSDjMg-3">
          <mxGeometry width="50" height="50" relative="1" as="geometry">
            <mxPoint x="680" y="280" as="sourcePoint" />
            <mxPoint x="630" y="280" as="targetPoint" />
          </mxGeometry>
        </mxCell>
        <mxCell id="iEggTIwabMXd5zdSDjMg-30" value="" style="endArrow=classic;html=1;rounded=0;entryX=0;entryY=1;entryDx=0;entryDy=0;exitX=0;exitY=0;exitDx=0;exitDy=0;" edge="1" parent="1" source="iEggTIwabMXd5zdSDjMg-6" target="iEggTIwabMXd5zdSDjMg-5">
          <mxGeometry width="50" height="50" relative="1" as="geometry">
            <mxPoint x="-170" y="380" as="sourcePoint" />
            <mxPoint x="-130" y="352.5" as="targetPoint" />
          </mxGeometry>
        </mxCell>
        <mxCell id="iEggTIwabMXd5zdSDjMg-31" value="" style="endArrow=classic;html=1;rounded=0;entryX=0.913;entryY=-0.035;entryDx=0;entryDy=0;entryPerimeter=0;" edge="1" parent="1" target="iEggTIwabMXd5zdSDjMg-6">
          <mxGeometry width="50" height="50" relative="1" as="geometry">
            <mxPoint x="-70" y="320" as="sourcePoint" />
            <mxPoint x="-80" y="400" as="targetPoint" />
          </mxGeometry>
        </mxCell>
        <mxCell id="iEggTIwabMXd5zdSDjMg-33" value="" style="endArrow=classic;html=1;rounded=0;startArrow=none;" edge="1" parent="1" source="iEggTIwabMXd5zdSDjMg-36">
          <mxGeometry width="50" height="50" relative="1" as="geometry">
            <mxPoint x="-320" y="230" as="sourcePoint" />
            <mxPoint x="-120" y="230" as="targetPoint" />
          </mxGeometry>
        </mxCell>
        <mxCell id="iEggTIwabMXd5zdSDjMg-39" value="prefix+ViewName+suffix&lt;br&gt;" style="text;html=1;strokeColor=none;fillColor=none;align=center;verticalAlign=middle;whiteSpace=wrap;rounded=0;" vertex="1" parent="1">
          <mxGeometry x="160" y="485" width="60" height="30" as="geometry" />
        </mxCell>
        <mxCell id="iEggTIwabMXd5zdSDjMg-41" value="Model" style="text;html=1;strokeColor=none;fillColor=none;align=center;verticalAlign=middle;whiteSpace=wrap;rounded=0;" vertex="1" parent="1">
          <mxGeometry x="-110" y="380" width="60" height="30" as="geometry" />
        </mxCell>
        <mxCell id="iEggTIwabMXd5zdSDjMg-43" value="" style="endArrow=classic;html=1;rounded=0;" edge="1" parent="1">
          <mxGeometry width="50" height="50" relative="1" as="geometry">
            <mxPoint x="200" y="230" as="sourcePoint" />
            <mxPoint x="280" y="230" as="targetPoint" />
          </mxGeometry>
        </mxCell>
        <mxCell id="iEggTIwabMXd5zdSDjMg-44" value="" style="endArrow=classic;html=1;rounded=0;" edge="1" parent="1">
          <mxGeometry width="50" height="50" relative="1" as="geometry">
            <mxPoint x="400" y="230" as="sourcePoint" />
            <mxPoint x="480" y="230" as="targetPoint" />
          </mxGeometry>
        </mxCell>
        <mxCell id="iEggTIwabMXd5zdSDjMg-45" value="" style="endArrow=classic;html=1;rounded=0;" edge="1" parent="1">
          <mxGeometry width="50" height="50" relative="1" as="geometry">
            <mxPoint x="600" y="230" as="sourcePoint" />
            <mxPoint x="680" y="230" as="targetPoint" />
          </mxGeometry>
        </mxCell>
        <mxCell id="iEggTIwabMXd5zdSDjMg-46" value="" style="endArrow=classic;html=1;rounded=0;entryX=1.021;entryY=0.671;entryDx=0;entryDy=0;exitX=0;exitY=0.75;exitDx=0;exitDy=0;entryPerimeter=0;" edge="1" parent="1">
          <mxGeometry width="50" height="50" relative="1" as="geometry">
            <mxPoint x="477.48" y="280" as="sourcePoint" />
            <mxPoint x="400" y="280.52" as="targetPoint" />
          </mxGeometry>
        </mxCell>
        <mxCell id="iEggTIwabMXd5zdSDjMg-48" value="" style="shape=message;html=1;html=1;outlineConnect=0;labelPosition=center;verticalLabelPosition=bottom;align=center;verticalAlign=top;" vertex="1" parent="1">
          <mxGeometry x="620" y="270" width="40" height="30" as="geometry" />
        </mxCell>
        <mxCell id="iEggTIwabMXd5zdSDjMg-52" value="" style="shape=message;html=1;html=1;outlineConnect=0;labelPosition=center;verticalLabelPosition=bottom;align=center;verticalAlign=top;" vertex="1" parent="1">
          <mxGeometry x="420" y="270" width="40" height="30" as="geometry" />
        </mxCell>
        <mxCell id="iEggTIwabMXd5zdSDjMg-53" value="" style="endArrow=classic;html=1;rounded=0;entryX=1.021;entryY=0.671;entryDx=0;entryDy=0;exitX=0;exitY=0.75;exitDx=0;exitDy=0;entryPerimeter=0;" edge="1" parent="1">
          <mxGeometry width="50" height="50" relative="1" as="geometry">
            <mxPoint x="280" y="280" as="sourcePoint" />
            <mxPoint x="202.52" y="280.52" as="targetPoint" />
          </mxGeometry>
        </mxCell>
        <mxCell id="iEggTIwabMXd5zdSDjMg-54" value="" style="endArrow=classic;html=1;rounded=0;entryX=1.021;entryY=0.671;entryDx=0;entryDy=0;exitX=0;exitY=0.75;exitDx=0;exitDy=0;entryPerimeter=0;" edge="1" parent="1">
          <mxGeometry width="50" height="50" relative="1" as="geometry">
            <mxPoint x="80" y="280" as="sourcePoint" />
            <mxPoint x="2.519999999999982" y="280.52" as="targetPoint" />
          </mxGeometry>
        </mxCell>
        <mxCell id="iEggTIwabMXd5zdSDjMg-50" value="" style="shape=message;html=1;html=1;outlineConnect=0;labelPosition=center;verticalLabelPosition=bottom;align=center;verticalAlign=top;" vertex="1" parent="1">
          <mxGeometry x="220" y="270" width="40" height="30" as="geometry" />
        </mxCell>
        <mxCell id="iEggTIwabMXd5zdSDjMg-47" value="" style="shape=message;html=1;html=1;outlineConnect=0;labelPosition=center;verticalLabelPosition=bottom;align=center;verticalAlign=top;" vertex="1" parent="1">
          <mxGeometry x="20" y="270" width="40" height="30" as="geometry" />
        </mxCell>
        <mxCell id="iEggTIwabMXd5zdSDjMg-57" value="ModelAndView" style="text;html=1;strokeColor=none;fillColor=none;align=center;verticalAlign=middle;whiteSpace=wrap;rounded=0;" vertex="1" parent="1">
          <mxGeometry x="10" y="300" width="60" height="30" as="geometry" />
        </mxCell>
        <mxCell id="iEggTIwabMXd5zdSDjMg-58" value="" style="endArrow=none;html=1;rounded=0;" edge="1" parent="1" target="iEggTIwabMXd5zdSDjMg-35">
          <mxGeometry width="50" height="50" relative="1" as="geometry">
            <mxPoint x="-320" y="230" as="sourcePoint" />
            <mxPoint x="-120" y="230" as="targetPoint" />
          </mxGeometry>
        </mxCell>
        <mxCell id="iEggTIwabMXd5zdSDjMg-35" value="Request" style="ellipse;whiteSpace=wrap;html=1;aspect=fixed;" vertex="1" parent="1">
          <mxGeometry x="-280" y="200" width="60" height="60" as="geometry" />
        </mxCell>
        <mxCell id="iEggTIwabMXd5zdSDjMg-60" value="" style="endArrow=none;html=1;rounded=0;startArrow=none;" edge="1" parent="1" source="iEggTIwabMXd5zdSDjMg-35" target="iEggTIwabMXd5zdSDjMg-36">
          <mxGeometry width="50" height="50" relative="1" as="geometry">
            <mxPoint x="-220" y="230" as="sourcePoint" />
            <mxPoint x="-120" y="230" as="targetPoint" />
          </mxGeometry>
        </mxCell>
        <mxCell id="iEggTIwabMXd5zdSDjMg-36" value="Response" style="ellipse;whiteSpace=wrap;html=1;aspect=fixed;" vertex="1" parent="1">
          <mxGeometry x="-210" y="200" width="60" height="60" as="geometry" />
        </mxCell>
        <mxCell id="iEggTIwabMXd5zdSDjMg-61" value="URL(ip:port), Method, parameter" style="text;html=1;strokeColor=none;fillColor=none;align=center;verticalAlign=middle;whiteSpace=wrap;rounded=0;" vertex="1" parent="1">
          <mxGeometry x="-320" y="170" width="210" height="30" as="geometry" />
        </mxCell>
        <mxCell id="iEggTIwabMXd5zdSDjMg-62" value="" style="endArrow=classic;html=1;rounded=0;exitX=0;exitY=0.75;exitDx=0;exitDy=0;" edge="1" parent="1">
          <mxGeometry width="50" height="50" relative="1" as="geometry">
            <mxPoint x="-120" y="298.82" as="sourcePoint" />
            <mxPoint x="-320" y="298.82" as="targetPoint" />
          </mxGeometry>
        </mxCell>
        <mxCell id="iEggTIwabMXd5zdSDjMg-63" value="Redirect" style="text;html=1;strokeColor=none;fillColor=none;align=center;verticalAlign=middle;whiteSpace=wrap;rounded=0;" vertex="1" parent="1">
          <mxGeometry x="-245" y="250" width="60" height="30" as="geometry" />
        </mxCell>
        <mxCell id="iEggTIwabMXd5zdSDjMg-65" value="" style="endArrow=classic;html=1;rounded=0;entryX=0.5;entryY=0;entryDx=0;entryDy=0;" edge="1" parent="1" target="iEggTIwabMXd5zdSDjMg-7">
          <mxGeometry width="50" height="50" relative="1" as="geometry">
            <mxPoint y="320" as="sourcePoint" />
            <mxPoint x="60" y="390" as="targetPoint" />
          </mxGeometry>
        </mxCell>
        <mxCell id="iEggTIwabMXd5zdSDjMg-66" value="View" style="text;html=1;strokeColor=none;fillColor=none;align=center;verticalAlign=middle;whiteSpace=wrap;rounded=0;" vertex="1" parent="1">
          <mxGeometry x="20" y="360" width="60" height="30" as="geometry" />
        </mxCell>
        <mxCell id="iEggTIwabMXd5zdSDjMg-68" value="Fowarding Redirect" style="text;html=1;strokeColor=none;fillColor=none;align=center;verticalAlign=middle;whiteSpace=wrap;rounded=0;" vertex="1" parent="1">
          <mxGeometry x="-280" y="90" width="120" height="30" as="geometry" />
        </mxCell>
      </root>
    </mxGraphModel>
  </diagram>
  <diagram id="927hjeYPWUCAcsZQczEw" name="페이지-2">
    <mxGraphModel dx="456" dy="619" grid="1" gridSize="10" guides="1" tooltips="1" connect="1" arrows="1" fold="1" page="1" pageScale="1" pageWidth="1169" pageHeight="827" math="0" shadow="0">
      <root>
        <mxCell id="0" />
        <mxCell id="1" parent="0" />
        <mxCell id="f-oD_xwLLwa81Wq7xeVw-1" value="ProductDAO" style="swimlane;fontStyle=1;align=center;verticalAlign=top;childLayout=stackLayout;horizontal=1;startSize=26;horizontalStack=0;resizeParent=1;resizeParentMax=0;resizeLast=0;collapsible=1;marginBottom=0;fontSize=14;" vertex="1" parent="1">
          <mxGeometry x="770" y="120" width="260" height="160" as="geometry" />
        </mxCell>
        <mxCell id="f-oD_xwLLwa81Wq7xeVw-2" value="- sqlSession : SqlSession&#xa;- NAMESPACE : String" style="text;strokeColor=none;fillColor=none;align=left;verticalAlign=top;spacingLeft=4;spacingRight=4;overflow=hidden;rotatable=0;points=[[0,0.5],[1,0.5]];portConstraint=eastwest;" vertex="1" parent="f-oD_xwLLwa81Wq7xeVw-1">
          <mxGeometry y="26" width="260" height="44" as="geometry" />
        </mxCell>
        <mxCell id="f-oD_xwLLwa81Wq7xeVw-3" value="" style="line;strokeWidth=1;fillColor=none;align=left;verticalAlign=middle;spacingTop=-1;spacingLeft=3;spacingRight=3;rotatable=0;labelPosition=right;points=[];portConstraint=eastwest;strokeColor=inherit;" vertex="1" parent="f-oD_xwLLwa81Wq7xeVw-1">
          <mxGeometry y="70" width="260" height="8" as="geometry" />
        </mxCell>
        <mxCell id="f-oD_xwLLwa81Wq7xeVw-4" value="+ getProductList() : List&lt;ProductDTO&gt;&#xa;+ getProductDetail(ProductDTO) : ProductDTO&#xa;+ setProductAdd(ProductDTO) : int" style="text;strokeColor=none;fillColor=none;align=left;verticalAlign=top;spacingLeft=4;spacingRight=4;overflow=hidden;rotatable=0;points=[[0,0.5],[1,0.5]];portConstraint=eastwest;" vertex="1" parent="f-oD_xwLLwa81Wq7xeVw-1">
          <mxGeometry y="78" width="260" height="82" as="geometry" />
        </mxCell>
        <mxCell id="f-oD_xwLLwa81Wq7xeVw-5" value="&lt;font size=&quot;1&quot; style=&quot;&quot;&gt;&lt;b style=&quot;font-size: 18px;&quot;&gt;Product&lt;/b&gt;&lt;/font&gt;" style="text;html=1;strokeColor=none;fillColor=none;align=center;verticalAlign=middle;whiteSpace=wrap;rounded=0;" vertex="1" parent="1">
          <mxGeometry x="490" y="60" width="60" height="30" as="geometry" />
        </mxCell>
        <mxCell id="f-oD_xwLLwa81Wq7xeVw-7" value="ProductService" style="swimlane;fontStyle=1;align=center;verticalAlign=top;childLayout=stackLayout;horizontal=1;startSize=26;horizontalStack=0;resizeParent=1;resizeParentMax=0;resizeLast=0;collapsible=1;marginBottom=0;fontSize=14;" vertex="1" parent="1">
          <mxGeometry x="320" y="120" width="400" height="160" as="geometry" />
        </mxCell>
        <mxCell id="f-oD_xwLLwa81Wq7xeVw-8" value="- productDAO : ProductDAO" style="text;strokeColor=none;fillColor=none;align=left;verticalAlign=top;spacingLeft=4;spacingRight=4;overflow=hidden;rotatable=0;points=[[0,0.5],[1,0.5]];portConstraint=eastwest;fontSize=14;" vertex="1" parent="f-oD_xwLLwa81Wq7xeVw-7">
          <mxGeometry y="26" width="400" height="26" as="geometry" />
        </mxCell>
        <mxCell id="f-oD_xwLLwa81Wq7xeVw-9" value="" style="line;strokeWidth=1;fillColor=none;align=left;verticalAlign=middle;spacingTop=-1;spacingLeft=3;spacingRight=3;rotatable=0;labelPosition=right;points=[];portConstraint=eastwest;strokeColor=inherit;fontSize=14;" vertex="1" parent="f-oD_xwLLwa81Wq7xeVw-7">
          <mxGeometry y="52" width="400" height="8" as="geometry" />
        </mxCell>
        <mxCell id="f-oD_xwLLwa81Wq7xeVw-10" value="+ getProductList() : List&lt;ProductDTO&gt;&#xa;+ getProductDetail(ProductDTO) : ProductDTO&#xa;+ setProductAdd(ProductDTO, List&lt;ProductOptionDTO&gt;) : int" style="text;strokeColor=none;fillColor=none;align=left;verticalAlign=top;spacingLeft=4;spacingRight=4;overflow=hidden;rotatable=0;points=[[0,0.5],[1,0.5]];portConstraint=eastwest;fontSize=14;" vertex="1" parent="f-oD_xwLLwa81Wq7xeVw-7">
          <mxGeometry y="60" width="400" height="100" as="geometry" />
        </mxCell>
        <mxCell id="f-oD_xwLLwa81Wq7xeVw-11" value="MemberController" style="swimlane;fontStyle=1;align=center;verticalAlign=top;childLayout=stackLayout;horizontal=1;startSize=26;horizontalStack=0;resizeParent=1;resizeParentMax=0;resizeLast=0;collapsible=1;marginBottom=0;fontSize=14;" vertex="1" parent="1">
          <mxGeometry y="400" width="280" height="160" as="geometry" />
        </mxCell>
        <mxCell id="f-oD_xwLLwa81Wq7xeVw-12" value="- memberService : MemberService" style="text;strokeColor=none;fillColor=none;align=left;verticalAlign=top;spacingLeft=4;spacingRight=4;overflow=hidden;rotatable=0;points=[[0,0.5],[1,0.5]];portConstraint=eastwest;fontSize=14;" vertex="1" parent="f-oD_xwLLwa81Wq7xeVw-11">
          <mxGeometry y="26" width="280" height="26" as="geometry" />
        </mxCell>
        <mxCell id="f-oD_xwLLwa81Wq7xeVw-13" value="" style="line;strokeWidth=1;fillColor=none;align=left;verticalAlign=middle;spacingTop=-1;spacingLeft=3;spacingRight=3;rotatable=0;labelPosition=right;points=[];portConstraint=eastwest;strokeColor=inherit;fontSize=14;" vertex="1" parent="f-oD_xwLLwa81Wq7xeVw-11">
          <mxGeometry y="52" width="280" height="8" as="geometry" />
        </mxCell>
        <mxCell id="f-oD_xwLLwa81Wq7xeVw-14" value="+ setMemberAdd() : void&#xa;+ setMemberAdd(MemberDTO) : String" style="text;strokeColor=none;fillColor=none;align=left;verticalAlign=top;spacingLeft=4;spacingRight=4;overflow=hidden;rotatable=0;points=[[0,0.5],[1,0.5]];portConstraint=eastwest;fontSize=14;" vertex="1" parent="f-oD_xwLLwa81Wq7xeVw-11">
          <mxGeometry y="60" width="280" height="100" as="geometry" />
        </mxCell>
        <mxCell id="f-oD_xwLLwa81Wq7xeVw-15" value="ProductController" style="swimlane;fontStyle=1;align=center;verticalAlign=top;childLayout=stackLayout;horizontal=1;startSize=26;horizontalStack=0;resizeParent=1;resizeParentMax=0;resizeLast=0;collapsible=1;marginBottom=0;fontSize=14;" vertex="1" parent="1">
          <mxGeometry y="120" width="270" height="160" as="geometry" />
        </mxCell>
        <mxCell id="f-oD_xwLLwa81Wq7xeVw-16" value="- productService : ProductService" style="text;strokeColor=none;fillColor=none;align=left;verticalAlign=top;spacingLeft=4;spacingRight=4;overflow=hidden;rotatable=0;points=[[0,0.5],[1,0.5]];portConstraint=eastwest;fontSize=14;" vertex="1" parent="f-oD_xwLLwa81Wq7xeVw-15">
          <mxGeometry y="26" width="270" height="26" as="geometry" />
        </mxCell>
        <mxCell id="f-oD_xwLLwa81Wq7xeVw-17" value="" style="line;strokeWidth=1;fillColor=none;align=left;verticalAlign=middle;spacingTop=-1;spacingLeft=3;spacingRight=3;rotatable=0;labelPosition=right;points=[];portConstraint=eastwest;strokeColor=inherit;fontSize=14;" vertex="1" parent="f-oD_xwLLwa81Wq7xeVw-15">
          <mxGeometry y="52" width="270" height="8" as="geometry" />
        </mxCell>
        <mxCell id="f-oD_xwLLwa81Wq7xeVw-18" value="+ getProductList() : ModelAndView&#xa;+ getProductDetail(ProductDTO) : String&#xa;+ setProductAdd() : void&#xa;+ setProductAdd(ProductDTO) : String" style="text;strokeColor=none;fillColor=none;align=left;verticalAlign=top;spacingLeft=4;spacingRight=4;overflow=hidden;rotatable=0;points=[[0,0.5],[1,0.5]];portConstraint=eastwest;fontSize=14;" vertex="1" parent="f-oD_xwLLwa81Wq7xeVw-15">
          <mxGeometry y="60" width="270" height="100" as="geometry" />
        </mxCell>
        <mxCell id="f-oD_xwLLwa81Wq7xeVw-19" style="edgeStyle=orthogonalEdgeStyle;rounded=0;orthogonalLoop=1;jettySize=auto;html=1;exitX=1;exitY=0.5;exitDx=0;exitDy=0;entryX=0;entryY=0.5;entryDx=0;entryDy=0;fontSize=14;" edge="1" parent="1" source="f-oD_xwLLwa81Wq7xeVw-18" target="f-oD_xwLLwa81Wq7xeVw-10">
          <mxGeometry relative="1" as="geometry" />
        </mxCell>
        <mxCell id="f-oD_xwLLwa81Wq7xeVw-21" style="edgeStyle=orthogonalEdgeStyle;rounded=0;orthogonalLoop=1;jettySize=auto;html=1;exitX=1;exitY=0.5;exitDx=0;exitDy=0;entryX=-0.008;entryY=0.39;entryDx=0;entryDy=0;entryPerimeter=0;fontSize=14;" edge="1" parent="1" source="f-oD_xwLLwa81Wq7xeVw-10" target="f-oD_xwLLwa81Wq7xeVw-4">
          <mxGeometry relative="1" as="geometry" />
        </mxCell>
        <mxCell id="f-oD_xwLLwa81Wq7xeVw-22" value="&lt;b&gt;Member&lt;/b&gt;" style="text;html=1;strokeColor=none;fillColor=none;align=center;verticalAlign=middle;whiteSpace=wrap;rounded=0;fontSize=18;" vertex="1" parent="1">
          <mxGeometry x="490" y="340" width="60" height="30" as="geometry" />
        </mxCell>
        <mxCell id="f-oD_xwLLwa81Wq7xeVw-23" value="MemberDAO" style="swimlane;fontStyle=1;align=center;verticalAlign=top;childLayout=stackLayout;horizontal=1;startSize=26;horizontalStack=0;resizeParent=1;resizeParentMax=0;resizeLast=0;collapsible=1;marginBottom=0;fontSize=14;" vertex="1" parent="1">
          <mxGeometry x="770" y="400" width="260" height="160" as="geometry" />
        </mxCell>
        <mxCell id="f-oD_xwLLwa81Wq7xeVw-24" value="- sqlSession : SqlSession" style="text;strokeColor=none;fillColor=none;align=left;verticalAlign=top;spacingLeft=4;spacingRight=4;overflow=hidden;rotatable=0;points=[[0,0.5],[1,0.5]];portConstraint=eastwest;fontSize=14;" vertex="1" parent="f-oD_xwLLwa81Wq7xeVw-23">
          <mxGeometry y="26" width="260" height="26" as="geometry" />
        </mxCell>
        <mxCell id="f-oD_xwLLwa81Wq7xeVw-25" value="" style="line;strokeWidth=1;fillColor=none;align=left;verticalAlign=middle;spacingTop=-1;spacingLeft=3;spacingRight=3;rotatable=0;labelPosition=right;points=[];portConstraint=eastwest;strokeColor=inherit;fontSize=14;" vertex="1" parent="f-oD_xwLLwa81Wq7xeVw-23">
          <mxGeometry y="52" width="260" height="8" as="geometry" />
        </mxCell>
        <mxCell id="f-oD_xwLLwa81Wq7xeVw-26" value="+ setMemberAdd(MemberDTO) : int" style="text;strokeColor=none;fillColor=none;align=left;verticalAlign=top;spacingLeft=4;spacingRight=4;overflow=hidden;rotatable=0;points=[[0,0.5],[1,0.5]];portConstraint=eastwest;fontSize=14;" vertex="1" parent="f-oD_xwLLwa81Wq7xeVw-23">
          <mxGeometry y="60" width="260" height="100" as="geometry" />
        </mxCell>
        <mxCell id="f-oD_xwLLwa81Wq7xeVw-27" value="MemberService" style="swimlane;fontStyle=1;align=center;verticalAlign=top;childLayout=stackLayout;horizontal=1;startSize=26;horizontalStack=0;resizeParent=1;resizeParentMax=0;resizeLast=0;collapsible=1;marginBottom=0;fontSize=14;" vertex="1" parent="1">
          <mxGeometry x="320" y="400" width="400" height="160" as="geometry" />
        </mxCell>
        <mxCell id="f-oD_xwLLwa81Wq7xeVw-28" value="- memberDAO : MemberDAO" style="text;strokeColor=none;fillColor=none;align=left;verticalAlign=top;spacingLeft=4;spacingRight=4;overflow=hidden;rotatable=0;points=[[0,0.5],[1,0.5]];portConstraint=eastwest;fontSize=14;" vertex="1" parent="f-oD_xwLLwa81Wq7xeVw-27">
          <mxGeometry y="26" width="400" height="26" as="geometry" />
        </mxCell>
        <mxCell id="f-oD_xwLLwa81Wq7xeVw-29" value="" style="line;strokeWidth=1;fillColor=none;align=left;verticalAlign=middle;spacingTop=-1;spacingLeft=3;spacingRight=3;rotatable=0;labelPosition=right;points=[];portConstraint=eastwest;strokeColor=inherit;fontSize=14;" vertex="1" parent="f-oD_xwLLwa81Wq7xeVw-27">
          <mxGeometry y="52" width="400" height="8" as="geometry" />
        </mxCell>
        <mxCell id="f-oD_xwLLwa81Wq7xeVw-30" value="+ setMemberAdd(MemberDTO) : int" style="text;strokeColor=none;fillColor=none;align=left;verticalAlign=top;spacingLeft=4;spacingRight=4;overflow=hidden;rotatable=0;points=[[0,0.5],[1,0.5]];portConstraint=eastwest;fontSize=14;" vertex="1" parent="f-oD_xwLLwa81Wq7xeVw-27">
          <mxGeometry y="60" width="400" height="100" as="geometry" />
        </mxCell>
      </root>
    </mxGraphModel>
  </diagram>
</mxfile>
